<?xml version="1.0" standalone="no"?>
<!DOCTYPE svg PUBLIC "-//W3C//DTD SVG 20010904//EN"
 "http://www.w3.org/TR/2001/REC-SVG-20010904/DTD/svg10.dtd">
<svg version="1.0" xmlns="http://www.w3.org/2000/svg"
 width="101.000000pt" height="95.000000pt" viewBox="0 0 101.000000 95.000000"
 preserveAspectRatio="xMidYMid meet">

<g transform="translate(0.000000,95.000000) scale(0.100000,-0.100000)"
fill="#000000" stroke="none">
<path d="M283 859 c-17 -5 -41 -21 -52 -35 -20 -26 -21 -39 -21 -351 l0 -325
34 -34 34 -34 249 0 c272 0 278 1 308 60 12 23 15 74 15 259 0 135 -4 241 -10
257 -6 15 -48 64 -93 110 -60 59 -93 85 -122 93 -48 13 -296 13 -342 0z m287
-144 c0 -117 9 -125 130 -125 l90 0 0 -208 c0 -151 -3 -213 -12 -225 -12 -16
-37 -17 -258 -15 l-245 3 -3 315 c-1 173 0 320 3 327 3 10 42 13 150 13 l145
0 0 -85z m140 0 l64 -65 -72 0 -72 0 0 65 c0 36 4 65 8 65 4 0 37 -29 72 -65z"/>
<path d="M558 403 l-68 -67 -33 32 c-34 33 -60 35 -71 6 -7 -18 80 -114 103
-114 9 0 55 38 101 85 72 72 83 88 74 103 -20 31 -38 23 -106 -45z"/>
</g>
</svg>
